<svg width="30" height="31" viewBox="0 0 30 31" fill="none" xmlns="http://www.w3.org/2000/svg">
<rect y="0.5" width="30" height="30" rx="5" fill="#144D92" fill-opacity="0.06"/>
<path d="M4 11.9C4 10.5745 4.89543 9.5 6 9.5H12C13.1046 9.5 14 10.5745 14 11.9V19.1C14 20.4255 13.1046 21.5 12 21.5H6C4.89543 21.5 4 20.4255 4 19.1V11.9Z" fill="#144D92"/>
<path d="M16 11.9C16 10.5745 16.8954 9.5 18 9.5H24C25.1046 9.5 26 10.5745 26 11.9V19.1C26 20.4255 25.1046 21.5 24 21.5H18C16.8954 21.5 16 20.4255 16 19.1V11.9Z" fill="#144D92"/>
<rect x="0.3" y="0.8" width="29.4" height="29.4" rx="4.7" stroke="#144D92" stroke-opacity="0.1" stroke-width="0.6"/>
</svg>
