<svg width="30" height="31" viewBox="0 0 30 31" fill="none" xmlns="http://www.w3.org/2000/svg">
<rect y="0.5" width="30" height="30" rx="5" fill="#144D92" fill-opacity="0.06"/>
<path d="M4 17.0333C4 18.2115 4.89543 19.1667 6 19.1667H24C25.1046 19.1667 26 18.2115 26 17.0333V8.63333C26 7.45513 25.1046 6.5 24 6.5H6C4.89543 6.5 4 7.45513 4 8.63333V17.0333Z" fill="#144D92"/>
<path d="M4 22.7222C4 21.7404 4.82081 20.9444 5.83333 20.9444H9.5C10.5125 20.9444 11.3333 21.7404 11.3333 22.7222C11.3333 23.7041 10.5125 24.5 9.5 24.5H5.83333C4.82081 24.5 4 23.7041 4 22.7222Z" fill="#144D92"/>
<path d="M13.1667 22.7222C13.1667 21.7404 13.9875 20.9444 15 20.9444H16.8333C17.8459 20.9444 18.6667 21.7404 18.6667 22.7222C18.6667 23.7041 17.8459 24.5 16.8333 24.5H15C13.9875 24.5 13.1667 23.7041 13.1667 22.7222Z" fill="#144D92"/>
<path d="M20.5 22.7222C20.5 21.7404 21.3208 20.9444 22.3333 20.9444H24.1667C25.1792 20.9444 26 21.7404 26 22.7222C26 23.7041 25.1792 24.5 24.1667 24.5H22.3333C21.3208 24.5 20.5 23.7041 20.5 22.7222Z" fill="#144D92"/>
<rect x="0.3" y="0.8" width="29.4" height="29.4" rx="4.7" stroke="#144D92" stroke-opacity="0.1" stroke-width="0.6"/>
</svg>
