<svg width="14" height="14" viewBox="0 0 14 14" fill="none" xmlns="http://www.w3.org/2000/svg">
<path d="M7 14C7.95621 14 8.85523 13.817 9.69706 13.451C10.5435 13.085 11.2892 12.5794 11.9343 11.9343C12.5794 11.2892 13.085 10.5458 13.451 9.70392C13.817 8.85752 14 7.95621 14 7C14 6.04379 13.817 5.14477 13.451 4.30294C13.085 3.45654 12.5794 2.71078 11.9343 2.06569C11.2892 1.42059 10.5435 0.915033 9.69706 0.54902C8.85065 0.183007 7.94935 0 6.99314 0C6.03693 0 5.13562 0.183007 4.28922 0.54902C3.44739 0.915033 2.70392 1.42059 2.05882 2.06569C1.4183 2.71078 0.915033 3.45654 0.54902 4.30294C0.183007 5.14477 0 6.04379 0 7C0 7.95621 0.183007 8.85752 0.54902 9.70392C0.915033 10.5458 1.42059 11.2892 2.06569 11.9343C2.71078 12.5794 3.45425 13.085 4.29608 13.451C5.14248 13.817 6.04379 14 7 14ZM6.23137 10.349C6.11242 10.349 6.0049 10.3239 5.90882 10.2735C5.81275 10.2232 5.71895 10.1386 5.62745 10.0196L3.9049 7.90588C3.85458 7.83726 3.8134 7.76634 3.78137 7.69314C3.75392 7.61536 3.7402 7.53758 3.7402 7.4598C3.7402 7.30425 3.79281 7.17157 3.89804 7.06176C4.00327 6.94739 4.13366 6.8902 4.28922 6.8902C4.38987 6.8902 4.47908 6.91078 4.55686 6.95196C4.63922 6.99314 4.72386 7.07092 4.81078 7.18529L6.20392 8.98333L9.13431 4.27549C9.26242 4.06503 9.42712 3.9598 9.62843 3.9598C9.77484 3.9598 9.90752 4.00784 10.0265 4.10392C10.1454 4.19543 10.2049 4.32124 10.2049 4.48137C10.2049 4.55915 10.1866 4.63693 10.15 4.71471C10.1134 4.79248 10.0745 4.86569 10.0333 4.93431L6.80784 10.0196C6.73464 10.1294 6.65 10.2118 6.55392 10.2667C6.45784 10.3216 6.35033 10.349 6.23137 10.349Z" fill="#144D92"/>
</svg>
