<svg width="41" height="40" viewBox="0 0 41 40" fill="none" xmlns="http://www.w3.org/2000/svg">
<g clipPath="url(#clip0_286_10286)">
<path d="M0.5 21.564C0.5 22.9812 0.866272 24.2718 1.59882 25.4359C2.33136 26.6001 3.35387 27.5314 4.66635 28.2298C5.97882 28.9182 7.49987 29.2623 9.22949 29.2623H18.5847V35.4271C18.5847 35.8826 18.7526 36.2825 19.0883 36.6266C19.4342 36.9708 19.8565 37.1429 20.355 37.1429C20.8434 37.1429 21.2554 36.9708 21.5912 36.6266C21.9371 36.2825 22.1101 35.8826 22.1101 35.4271V29.2623H32.5336C34.1106 29.2623 35.4943 28.9738 36.6847 28.3968C37.8852 27.8097 38.8213 26.9999 39.4927 25.9674C40.1642 24.9349 40.5 23.7404 40.5 22.3839C40.5 20.6833 40.0574 19.1649 39.1723 17.8287C38.2973 16.4925 37.0865 15.5207 35.5401 14.9134C35.5299 13.1621 35.2297 11.5526 34.6396 10.0848C34.0495 8.61702 33.2203 7.34155 32.152 6.25842C31.0837 5.17528 29.8374 4.34016 28.413 3.75304C26.9988 3.1558 25.4574 2.85718 23.7888 2.85718C22.4763 2.85718 21.2503 3.05457 20.1108 3.44936C18.9713 3.84414 17.9335 4.40596 16.9975 5.13479C16.0717 5.85351 15.2679 6.6937 14.5862 7.65536C13.6197 7.4529 12.6531 7.46302 11.6866 7.68572C10.7302 7.8983 9.85012 8.29815 9.04636 8.88527C8.25277 9.46226 7.60161 10.186 7.0929 11.0566C6.59437 11.917 6.30949 12.8939 6.23827 13.9871C5.05806 14.22 4.03555 14.7008 3.17074 15.4296C2.3161 16.1483 1.65478 17.0391 1.18676 18.102C0.72892 19.1548 0.5 20.3088 0.5 21.564ZM18.5847 28.1691V20.82L18.7373 18.6031L18.0658 19.6508L16.0971 21.731C15.7817 22.0651 15.3951 22.2321 14.9372 22.2321C14.5404 22.2321 14.1843 22.0954 13.8689 21.8221C13.5637 21.5488 13.4111 21.1945 13.4111 20.7592C13.4111 20.3645 13.5739 20.0102 13.8995 19.6964L18.951 14.8526C19.185 14.6299 19.4139 14.473 19.6377 14.3819C19.8717 14.2908 20.1108 14.2453 20.355 14.2453C20.589 14.2453 20.8179 14.2908 21.0418 14.3819C21.2758 14.473 21.5098 14.6299 21.7438 14.8526L26.8106 19.6964C27.126 20.0102 27.2837 20.3645 27.2837 20.7592C27.2837 21.1945 27.126 21.5488 26.8106 21.8221C26.5053 22.0954 26.1543 22.2321 25.7575 22.2321C25.2997 22.2321 24.9131 22.0651 24.5977 21.731L22.629 19.6508L21.9575 18.6031L22.1101 20.82V28.1691C22.1101 28.655 21.9371 29.07 21.5912 29.4142C21.2453 29.7584 20.8332 29.9304 20.355 29.9304C19.8667 29.9304 19.4495 29.7584 19.1036 29.4142C18.7577 29.07 18.5847 28.655 18.5847 28.1691Z" fill="#144D92"/>
</g>
<defs>
<clipPath id="clip0_286_10286">
<rect width="40" height="40" fill="white" transform="translate(0.5)"/>
</clipPath>
</defs>
</svg>
